<?xml version="1.0" encoding="utf-8"?>
<!-- Generated by IcoMoon.io -->
<!DOCTYPE svg PUBLIC "-//W3C//DTD SVG 1.1//EN" "http://www.w3.org/Graphics/SVG/1.1/DTD/svg11.dtd">
<svg version="1.1" xmlns="http://www.w3.org/2000/svg" xmlns:xlink="http://www.w3.org/1999/xlink" width="512" height="512" viewBox="0 0 512 512"><g id="icomoon-ignore">
</g>
<path d="M256 512c141.385 0 256-114.615 256-256s-114.615-256-256-256-256 114.615-256 256 114.615 256 256 256zM256 48c114.875 0 208 93.125 208 208s-93.125 208-208 208-208-93.125-208-208 93.125-208 208-208zM128 160c0-17.673 14.327-32 32-32s32 14.327 32 32c0 17.673-14.327 32-32 32s-32-14.327-32-32zM320 160c0-17.673 14.327-32 32-32s32 14.327 32 32c0 17.673-14.327 32-32 32s-32-14.327-32-32zM363.053 320h32.432c4.623 36.253-16.226 72.265-51.979 85.28-41.452 15.088-87.45-6.358-102.54-47.808-9.054-24.872-36.653-37.741-61.524-28.686-22.781 8.294-35.478 32.149-30.494 55.212h-32.43c-4.621-36.254 16.225-72.264 51.978-85.28 41.452-15.089 87.451 6.358 102.541 47.807 9.052 24.874 36.653 37.741 61.522 28.686 22.781-8.292 35.478-32.149 30.494-55.211z"></path>
</svg>
